<?xml version="1.0" encoding="utf-8"?>
<svg width="421" height="333" xmlns="http://www.w3.org/2000/svg">
  <defs id="defs2988"/>
  <path d=" M 58 248.50527954101562 C 44.39744567871094 245.4364776611328 29.62664222717285 235.43296813964844 20.6583194732666 223.21566772460938 C 15.534221649169922 216.23526000976562 10.43332290649414 205.5009765625 7.450405120849609 195.42108154296875 C 3.696014404296875 182.73422241210938 2.9815995693206787 163.4271240234375 5.769330024719238 149.98997497558594 C 9.524423599243164 131.8900146484375 17.17402458190918 117.4352035522461 29.156150817871094 105.7978515625 C 36.954002380371094 98.22438049316406 48.332393646240234 91.90319061279297 57.648319244384766 89.96920776367188 C 65.39788818359375 88.36040496826172 80.1048812866211 89.1961898803711 87.12654113769531 91.64442443847656 C 108.10005187988281 98.9572525024414 126.42703247070312 121.03623962402344 132.16787719726562 145.90689086914062 C 132.16787719726562 145.90689086914062 133.343505859375 151 133.343505859375 151 C 133.343505859375 151 208.09019470214844 151 208.09019470214844 151 C 208.09019470214844 151 282.8368835449219 151 282.8368835449219 151 C 282.8368835449219 151 284.9386901855469 147.59921264648438 284.9386901855469 147.59921264648438 C 288.44268798828125 141.9296112060547 293.41119384765625 141.32310485839844 297.4111022949219 146.0767364501953 C 298.8349914550781 147.7689208984375 300 149.5689239501953 300 150.0767364501953 C 300 150.58453369140625 303.82501220703125 151 308.5 151 C 308.5 151 317 151 317 151 C 317 151 317 133 317 133 C 317 133 317 115 317 115 C 317 115 323.5 115 323.5 115 C 323.5 115 330 115 330 115 C 330 115 330 103.5 330 103.5 C 330 103.5 330 92 330 92 C 330 92 323.5 92 323.5 92 C 323.5 92 317 92 317 92 C 317 92 317 82.46826171875 317 82.46826171875 C 317 82.46826171875 317 72.93653106689453 317 72.93653106689453 C 317 72.93653106689453 328.75 73.21826171875 328.75 73.21826171875 C 328.75 73.21826171875 340.5 73.5 340.5 73.5 C 340.5 73.5 340.8047790527344 78.25 340.8047790527344 78.25 C 340.8047790527344 78.25 341.1095886230469 83 341.1095886230469 83 C 341.1095886230469 83 350.5 83 350.5 83 C 350.5 83 359.8904113769531 83 359.8904113769531 83 C 359.8904113769531 83 360.1952209472656 78.25 360.1952209472656 78.25 C 360.1952209472656 78.25 360.5 73.5 360.5 73.5 C 360.5 73.5 377.75 73.22638702392578 377.75 73.22638702392578 C 377.75 73.22638702392578 395 72.95277404785156 395 72.95277404785156 C 395 72.95277404785156 395 82.47638702392578 395 82.47638702392578 C 395 82.47638702392578 395 92 395 92 C 395 92 388 92 388 92 C 388 92 381 92 381 92 C 381 92 381 103.5 381 103.5 C 381 103.5 381 115 381 115 C 381 115 388 115 388 115 C 388 115 395 115 395 115 C 395 115 395 133 395 133 C 395 133 395 151 395 151 C 395 151 406 151 406 151 C 406 151 417 151 417 151 C 417 151 417 171.5 417 171.5 C 417 171.5 417 192 417 192 C 417 192 358.75 192.0384979248047 358.75 192.0384979248047 C 358.75 192.0384979248047 300.5 192.07699584960938 300.5 192.07699584960938 C 300.5 192.07699584960938 298.498046875 195.25991821289062 298.498046875 195.25991821289062 C 294.3699035644531 201.82330322265625 289.2532653808594 201.97613525390625 285.08245849609375 195.66062927246094 C 285.08245849609375 195.66062927246094 282.6649169921875 192 282.6649169921875 192 C 282.6649169921875 192 207.56912231445312 192 207.56912231445312 192 C 207.56912231445312 192 132.47332763671875 192 132.47332763671875 192 C 132.47332763671875 192 129.5663604736328 200.56182861328125 129.5663604736328 200.56182861328125 C 117.98753356933594 234.66477966308594 87.41988372802734 255.1425323486328 58 248.50527954101562 Z M 83.1397476196289 226.79356384277344 C 90.63855743408203 223.36048889160156 95.08238220214844 219.17959594726562 99.09190368652344 211.78521728515625 C 102.2531509399414 205.9552459716797 102.49962615966797 204.84811401367188 102.49494934082031 196.5 C 102.48895263671875 185.9323272705078 100.57842254638672 180.7525634765625 94.08990478515625 173.71336364746094 C 94.08990478515625 173.71336364746094 90.00159454345703 169.278076171875 90.00159454345703 169.278076171875 C 90.00159454345703 169.278076171875 93.67012786865234 165.38902282714844 93.67012786865234 165.38902282714844 C 99.89640808105469 158.78851318359375 102.5 151.89198303222656 102.5 142 C 102.5 134.71888732910156 102.09931182861328 132.68405151367188 99.70576477050781 127.80990600585938 C 96.05852508544922 120.38279724121094 87.74212646484375 112.74352264404297 80.76154327392578 110.40811920166016 C 74.78974914550781 108.41021728515625 65.44175720214844 108.16070556640625 59.44083023071289 109.83905029296875 C 53.56230545043945 111.48314666748047 46.27954864501953 116.64939880371094 42.41184997558594 121.9190673828125 C 37.44569778442383 128.68536376953125 35.72608184814453 134.71142578125 36.1628303527832 143.8175811767578 C 36.586570739746094 152.65257263183594 38.95907211303711 158.4429473876953 44.896846771240234 165.13397216796875 C 44.896846771240234 165.13397216796875 48.675113677978516 169.39154052734375 48.675113677978516 169.39154052734375 C 48.675113677978516 169.39154052734375 45.337467193603516 172.7292022705078 45.337467193603516 172.7292022705078 C 36.69919204711914 181.36746215820312 33.5478630065918 196.51319885253906 37.95681381225586 208.20162963867188 C 41.663490295410156 218.0282745361328 51.11964416503906 226.4522705078125 61.44038772583008 229.12188720703125 C 67.01953125 230.56503295898438 77.3146743774414 229.4603729248047 83.1397476196289 226.79356384277344 C 83.1397476196289 226.79356384277344 83.1397476196289 226.79356384277344 83.1397476196289 226.79356384277344 Z M 381 159.5 C 381 159.5 381 154 381 154 C 381 154 355.5 154 355.5 154 C 355.5 154 330 154 330 154 C 330 154 330 159.5 330 159.5 C 330 159.5 330 165 330 165 C 330 165 355.5 165 355.5 165 C 355.5 165 381 165 381 165 C 381 165 381 159.5 381 159.5 Z" id="path2996" style="fill: rgb(255, 255, 255);" transform="matrix(1, 0, 0, -1, 0.000023783975450442085, 328.07904052734375)"/>
</svg>